# xmcd
#
# Track frame offsets:
#	150
#	18889
#	30664
#	53504
#	71252
#	90216
#	110132
#	128726
#	141233
#	155644
#	176371
#
# Disc length: 2549 seconds
# Revision: 0
# Processed by: cddbd v1.5.2PL0 Copyright (c) Steve Scherf et al.
# Submitted via: dBpowerAMP V12.0
#
DISCID=8309f30b
DTITLE=Swarms - Old Raves End
DYEAR=2011
DGENRE=Electronic
TTITLE0=T-1000
TTITLE1=Chapel
TTITLE2=Flikr Of Ur Eyes
TTITLE3=Roulette
TTITLE4=Hostile
TTITLE5=Polar
TTITLE6=Sky Below Sea
TTITLE7=Stokes Croft
TTITLE8=Time Lapse
TTITLE9=Sterling
TTITLE10=Bison
EXTD=
EXTT0=
EXTT1=
EXTT2=
EXTT3=
EXTT4=
EXTT5=
EXTT6=
EXTT7=
EXTT8=
EXTT9=
EXTT10=
PLAYORDER=
